<svg width="87" height="28" viewBox="0 0 87 28" fill="none" xmlns="http://www.w3.org/2000/svg">
<g clip-path="url(#clip0_2703_59883)">
<path d="M14.7808 4.93344H18.8447V7.62148H19.0039C19.5524 5.71519 20.9444 4.71094 22.6314 4.71094C23.0561 4.71094 23.575 4.77108 23.9526 4.86127V8.64978C23.5573 8.51748 22.7611 8.42127 22.183 8.42127C20.3309 8.42127 18.9745 9.7262 18.9745 11.6204V20.334H14.7808V4.93344Z" fill="currentColor"/>
<path d="M24.4238 16.0446C24.4238 12.6049 27.1075 11.5826 30.098 11.3C32.7226 11.0414 33.7549 10.9091 33.7549 9.91687V9.85674C33.7549 8.59391 32.9408 7.86025 31.5135 7.86025C30.0094 7.86025 29.1128 8.61195 28.8298 9.63424L24.9547 9.31553C25.5326 6.50723 27.9156 4.73926 31.5371 4.73926C34.8991 4.73926 37.9486 6.28473 37.9486 9.95295V20.3443H33.9731V18.2095H33.8551C33.1179 19.6467 31.6728 20.639 29.4373 20.639C26.559 20.6329 24.4238 19.0934 24.4238 16.0446ZM33.7843 14.8359V13.2002C33.283 13.543 31.7849 13.7595 30.8705 13.8918C29.396 14.1023 28.4228 14.6917 28.4228 15.9002C28.4228 17.073 29.3489 17.6863 30.6346 17.6863C32.4809 17.6863 33.7843 16.4535 33.7843 14.8359Z" fill="currentColor"/>
<path d="M40.167 4.9613H44.2957V7.5471H44.4845C45.0448 6.29629 46.2539 4.75684 48.7843 4.75684C52.0992 4.75684 54.9009 7.38473 54.9009 12.6826C54.9009 17.8362 52.2172 20.6144 48.7726 20.6144C46.3307 20.6144 45.0625 19.1772 44.4845 17.8964H44.3547V26.1408H40.167V4.9613ZM47.4454 17.2168C49.504 17.2168 50.6247 15.3526 50.6247 12.6646C50.6247 9.99458 49.5217 8.16048 47.4454 8.16048C45.4105 8.16048 44.2663 9.91641 44.2663 12.6646C44.2663 15.4128 45.4282 17.2168 47.4454 17.2168Z" fill="currentColor"/>
<path d="M56.4229 4.9613H60.5575V7.5471H60.7463C61.3066 6.29629 62.5157 4.75684 65.0461 4.75684C68.361 4.75684 71.1627 7.38473 71.1627 12.6826C71.1627 17.8362 68.479 20.6144 65.0344 20.6144C62.5925 20.6144 61.3243 19.1772 60.7463 17.8964H60.6165V26.1408H56.4229V4.9613ZM63.7014 17.2168C65.7598 17.2168 66.8805 15.3526 66.8805 12.6646C66.8805 9.99458 65.7775 8.16048 63.7014 8.16048C61.6665 8.16048 60.5221 9.91641 60.5221 12.6646C60.5221 15.4128 61.69 17.2168 63.7014 17.2168Z" fill="currentColor"/>
<path d="M72.5684 12.7346C72.5684 7.97796 75.4526 4.76074 79.8998 4.76074C83.893 4.76074 87.0015 7.34654 87.0015 12.5843V13.7569H76.709V13.769C76.709 16.0662 78.036 17.4793 80.13 17.4793C81.5278 17.4793 82.6071 16.8658 83.0318 15.6932L86.9071 15.9519C86.3173 18.8083 83.7986 20.6664 80.0592 20.6664C75.4112 20.6664 72.5684 17.6175 72.5684 12.7346ZM83.0555 11.111C83.0437 9.27687 81.7873 7.9539 79.9648 7.9539C78.1068 7.9539 76.7974 9.36106 76.709 11.111H83.0555Z" fill="currentColor"/>
<path d="M0 -0.000976562V3.57706H4.25856H12.4572H13.3419V-0.000976562H0Z" fill="currentColor"/>
<path d="M0 9.12207V20.3372H4.25856V12.7061H12.4572V9.12207H4.25856H0Z" fill="currentColor"/>
</g>
<defs>
<clipPath id="clip0_2703_59883">
<rect width="87" height="27.55" fill="white"/>
</clipPath>
</defs>
</svg>
